HIERARCHY
ROOT Hips
{
	OFFSET 0.000000 0.000000 0.000000
	CHANNELS 6 Xposition Yposition Zposition Zrotation Yrotation Xrotation 
	JOINT LeftUpLeg_virtual
	{
		OFFSET 0.000000 0.000000 0.000000
		CHANNELS 3 Zrotation Yrotation Xrotation
		JOINT LeftUpLeg
		{
			OFFSET 8.479694 -4.795517 -0.379053
			CHANNELS 3 Zrotation Yrotation Xrotation
			JOINT LeftLeg
			{
				OFFSET 0.485052 -32.551468 0.112863
				CHANNELS 3 Zrotation Yrotation Xrotation
				JOINT LeftFoot
				{
					OFFSET 0.438033 -32.635670 -3.012641
					CHANNELS 3 Zrotation Yrotation Xrotation
					JOINT LeftToeBase
					{
						OFFSET 0.970169 -13.225353 11.864223
						CHANNELS 3 Zrotation Yrotation Xrotation
						End Site
						{
							OFFSET 0.000000 0.000000 0.000000
						}
					}
				}
			}
		}
	}
	JOINT RightUpLeg_virtual
	{
		OFFSET 0.000000 0.000000 0.000000
		CHANNELS 3 Zrotation Yrotation Xrotation
		JOINT RightUpLeg
		{
			OFFSET -8.479694 -4.795517 -0.379053
			CHANNELS 3 Zrotation Yrotation Xrotation
			JOINT RightLeg
			{
				OFFSET -0.484100 -32.551483 0.112903
				CHANNELS 3 Zrotation Yrotation Xrotation
				JOINT RightFoot
				{
					OFFSET -0.438985 -32.635651 -3.012681
					CHANNELS 3 Zrotation Yrotation Xrotation
					JOINT RightToeBase
					{
						OFFSET -0.970169 -13.225354 11.864223
						CHANNELS 3 Zrotation Yrotation Xrotation
						End Site
						{
							OFFSET 0.000000 0.000000 0.000000
						}
					}
				}
			}
		}
	}
	JOINT Spine_virtual
	{
		OFFSET 0.000000 0.000000 0.000000
		CHANNELS 3 Zrotation Yrotation Xrotation
		JOINT Spine
		{
			OFFSET 0.000000 7.722015 1.166203
			CHANNELS 3 Zrotation Yrotation Xrotation
			JOINT Spine1
			{
				OFFSET 0.000000 12.024086 0.248766
				CHANNELS 3 Zrotation Yrotation Xrotation
				JOINT Spine2
				{
					OFFSET -0.000000 11.503036 -0.491240
					CHANNELS 3 Zrotation Yrotation Xrotation
					JOINT Neck_virtual
					{
						OFFSET 0.000000 0.000000 0.000000
						CHANNELS 3 Zrotation Yrotation Xrotation
						JOINT Neck
						{
							OFFSET 0.000000 18.430687 -3.123054
							CHANNELS 3 Zrotation Yrotation Xrotation
							JOINT Head
							{
								OFFSET -0.000000 9.051071 1.034021
								CHANNELS 3 Zrotation Yrotation Xrotation
								End Site
								{
									OFFSET 0.000000 0.000000 0.000000
								}
							}
						}
					}
					JOINT LeftShoulder_virtual
					{
						OFFSET 0.000000 0.000000 0.000000
						CHANNELS 3 Zrotation Yrotation Xrotation
						JOINT LeftShoulder
						{
							OFFSET 6.197824 13.665230 -4.064723
							CHANNELS 3 Zrotation Yrotation Xrotation
							JOINT LeftArm
							{
								OFFSET 7.778132 -0.187073 -1.709282
								CHANNELS 3 Zrotation Yrotation Xrotation
								JOINT LeftForeArm
								{
									OFFSET 21.954697 0.000000 -2.041093
									CHANNELS 3 Zrotation Yrotation Xrotation
									JOINT LeftHand
									{
										OFFSET 22.992908 0.000000 -0.870901
										CHANNELS 3 Zrotation Yrotation Xrotation
										End Site
										{
											OFFSET 0.000000 0.000000 0.000000
										}
									}
								}
							}
						}
					}
					JOINT RightShoulder_virtual
					{
						OFFSET 0.000000 0.000000 0.000000
						CHANNELS 3 Zrotation Yrotation Xrotation
						JOINT RightShoulder
						{
							OFFSET -6.197824 13.665230 -4.064723
							CHANNELS 3 Zrotation Yrotation Xrotation
							JOINT RightArm
							{
								OFFSET -7.778132 -0.187073 -1.709282
								CHANNELS 3 Zrotation Yrotation Xrotation
								JOINT RightForeArm
								{
									OFFSET -21.954697 0.000000 -2.041093
									CHANNELS 3 Zrotation Yrotation Xrotation
									JOINT RightHand
									{
										OFFSET -22.992908 0.000000 -0.870901
										CHANNELS 3 Zrotation Yrotation Xrotation
										End Site
										{
											OFFSET 0.000000 0.000000 0.000000
										}
									}
								}
							}
						}
					}
				}
			}
		}
	}
}
MOTION
Frames: 7
Frame Time: 0.033333
47.281673 81.529137 4.576684 179.380193 -5.127694 -179.759268 -3.378036 -0.274230 15.644864 12.875018 -7.688752 -39.429408 1.731431 0.082381 30.437061 -6.585201 -8.112824 -9.567323 0.000000 0.000000 0.000000 1.151255 1.802345 13.158359 0.663808 -3.714168 -37.948319 -0.437204 4.730563 37.531145 6.488959 9.321918 -4.185324 0.000000 0.000000 0.000000 0.497166 3.527528 10.999600 -0.882293 -0.325967 9.938871 1.094270 -0.863063 9.312671 0.097257 -0.057570 0.030964 1.790491 -0.056166 7.857123 -6.359013 1.191066 -19.423499 0.000000 0.000000 0.000000 2.945617 0.482935 5.190210 2.577196 -8.250965 4.323830 -22.078691 -26.718221 -35.192867 -6.417520 -62.105421 6.840855 0.000000 0.000000 0.000000 -1.424838 2.417296 4.088465 19.469613 16.101228 4.381053 53.557979 13.840173 35.284771 -167.615342 73.653816 -168.891986 0.000000 0.000000 0.000000 
48.026245 81.680504 4.361815 179.339485 -5.435258 -179.393593 -3.598798 0.232619 15.681629 13.194711 -7.457428 -39.444407 2.181713 -0.037188 29.571383 -6.702503 -7.982120 -9.000241 0.000000 0.000000 0.000000 1.182386 3.393830 14.009116 1.582229 -5.251715 -38.336663 -0.470001 4.271091 36.537790 6.011772 9.108514 -4.350422 0.000000 0.000000 0.000000 0.243784 3.874516 11.068210 -1.045963 -1.572832 9.709768 1.032730 -0.939693 9.218408 0.042540 0.166249 0.074124 1.766019 -0.352723 8.018599 -7.959629 2.066391 -20.271380 0.000000 0.000000 0.000000 2.984967 0.346756 5.230907 5.613283 -8.553974 3.487117 -14.544459 -28.816210 -40.202828 -6.433034 -57.905627 7.114262 0.000000 0.000000 0.000000 -1.346024 2.282783 4.319689 20.270080 16.893846 4.057795 52.276311 13.131059 33.982308 -168.653148 73.524008 -170.382334 0.000000 0.000000 0.000000 
48.643402 81.835083 4.066681 179.419316 -6.051010 -179.583705 -3.921799 1.450318 15.852849 13.002411 -6.865592 -39.464570 2.306277 0.270198 28.760240 -6.425410 -7.335275 -8.030460 0.000000 0.000000 0.000000 1.132939 4.033368 14.601442 2.527701 -5.891238 -38.038700 -0.597886 4.114003 35.654171 5.484861 8.798333 -4.337740 0.000000 0.000000 0.000000 0.190926 4.614198 11.427006 -1.100939 -2.152227 9.609167 1.042389 -1.323176 9.282175 0.073922 0.118269 0.049871 1.702717 -0.747759 8.154761 -9.677805 2.366030 -20.935291 0.000000 0.000000 0.000000 3.053035 -0.065024 5.278283 8.824019 -8.928792 2.438499 -6.511085 -31.250199 -45.398727 -5.964658 -52.497865 6.824685 0.000000 0.000000 0.000000 -1.306244 1.894617 4.415083 20.899891 17.631770 3.895563 51.263134 12.245465 32.573558 -169.088600 73.522178 -171.310939 0.000000 0.000000 0.000000 
49.122902 81.959969 3.669906 179.674000 -7.592150 -179.743490 -4.486598 3.185928 15.746188 12.037919 -5.450456 -39.896552 2.422042 1.537384 28.035731 -5.191322 -5.440083 -5.511624 0.000000 0.000000 0.000000 1.210001 3.918622 15.338284 3.300938 -6.158578 -37.854619 -0.629627 4.097611 34.881260 4.798601 8.251909 -4.322289 0.000000 0.000000 0.000000 0.422099 5.228981 11.665148 -1.018032 -2.761314 9.351945 1.110890 -1.787194 9.361874 0.047191 0.009249 0.038060 1.620848 -1.113915 8.330436 -11.616512 3.148190 -21.536235 0.000000 0.000000 0.000000 3.075153 -0.498713 5.478512 11.638245 -9.089769 1.464626 1.321310 -34.011593 -50.808609 -5.593442 -46.814076 6.566805 0.000000 0.000000 0.000000 -1.328731 1.393507 4.511934 21.464532 18.282799 3.679307 50.548505 11.273306 30.998260 -169.488071 73.708963 -172.260813 0.000000 0.000000 0.000000 
49.429588 82.065796 3.176717 179.935282 -8.650618 -179.925925 -4.717487 5.131849 15.731430 10.494215 -3.610886 -40.192521 2.600910 3.673822 27.288194 -3.255080 -2.984841 -3.457252 0.000000 0.000000 0.000000 1.288199 4.589353 15.940381 3.877978 -6.368643 -37.522047 -0.809931 3.633840 34.373484 4.191398 7.696806 -4.737333 0.000000 0.000000 0.000000 0.660221 5.868578 11.859705 -1.011172 -3.088790 9.017596 1.087933 -2.098558 9.455531 0.025085 0.009813 0.021336 1.410059 -1.506069 8.525786 -13.464051 3.931265 -22.037889 0.000000 0.000000 0.000000 2.974982 -0.811864 5.642830 13.667484 -8.778206 0.424244 8.340565 -37.103316 -56.195108 -5.418523 -41.810170 6.304540 0.000000 0.000000 0.000000 -1.390745 1.040753 4.726890 22.093485 19.067066 3.499965 50.197253 10.211709 29.381237 -169.443442 74.084303 -172.817665 0.000000 0.000000 0.000000 
49.598331 82.144356 2.629567 179.883496 -9.851859 -179.891514 -4.662772 5.858644 15.896280 9.295403 -2.631973 -40.494474 2.615187 6.270128 26.677163 -1.702548 -1.034959 -1.875625 0.000000 0.000000 0.000000 1.408645 4.935446 16.481979 4.122553 -6.881287 -37.321325 -0.950063 3.453009 34.028515 3.788207 7.281130 -5.315666 0.000000 0.000000 0.000000 0.843290 6.213175 11.982561 -1.124606 -3.229943 8.617602 0.898991 -2.373794 9.522247 0.077886 -0.027386 0.009561 1.173238 -1.746889 8.779715 -15.055158 4.339629 -22.430478 0.000000 0.000000 0.000000 2.849010 -1.022999 5.776235 14.864071 -8.012690 -0.493416 14.420575 -40.567693 -61.722343 -5.278085 -38.460952 5.864479 0.000000 0.000000 0.000000 -1.477029 0.746406 5.023358 22.599552 19.744417 3.237558 50.037273 8.949802 27.532532 -169.190479 74.528087 -173.165690 0.000000 0.000000 0.000000 
49.676239 82.194855 2.072147 179.951852 -11.033899 -179.899751 -4.394199 6.000069 16.147566 8.175200 -1.898459 -40.819854 2.657925 7.590785 26.549734 -0.457589 0.420614 -0.832788 0.000000 0.000000 0.000000 1.501087 4.888457 16.815832 4.326183 -7.171547 -36.902904 -1.018711 3.110724 33.618369 3.546703 6.995869 -5.895832 0.000000 0.000000 0.000000 1.158455 6.197766 12.106195 -1.163460 -3.106186 8.292632 0.783644 -2.509921 9.572718 -0.007034 0.021078 -0.004617 0.977634 -1.882573 8.984516 -16.413923 4.781407 -22.683178 0.000000 0.000000 0.000000 2.735879 -1.268733 5.857764 15.167178 -7.014111 -1.340510 19.731395 -44.082543 -67.247871 -5.331587 -37.107516 5.479272 0.000000 0.000000 0.000000 -1.585082 0.564110 5.150217 22.995282 20.147904 3.009063 50.096637 7.426321 25.542993 -168.217369 74.773045 -172.792940 0.000000 0.000000 0.000000 
